<svg xmlns="http://www.w3.org/2000/svg" width="512" height="512" viewBox="0 0 512 512">
<g>
<path d="M 0.00 138.00 L 0.00 0.00 L 0.08 48.75 C0.15,93.10 0.29,96.91 1.56,91.00 C6.29,69.04 25.78,49.70 47.80,45.11 C55.24,43.55 457.66,43.54 465.20,45.09 C468.12,45.69 474.28,47.98 478.90,50.19 C494.10,57.45 505.98,72.07 510.42,89.00 C511.74,94.02 511.87,90.39 511.93,47.25 L 512.00 0.00 L 512.00 138.00 ZM 199.49 109.89 C203.45,111.99 203.84,112.00 293.77,112.00 C373.01,112.00 384.52,111.81 387.77,110.45 C400.65,105.07 404.70,88.37 395.76,77.52 C394.68,76.22 393.96,75.14 393.05,74.25 C388.73,70.02 380.27,70.02 310.45,70.02 C305.37,70.02 299.97,70.02 294.22,70.02 C290.94,70.02 287.78,70.02 284.73,70.02 C207.76,70.00 200.50,69.99 196.09,73.54 C195.46,74.05 194.88,74.63 194.17,75.30 C187.64,81.39 185.67,92.56 189.74,100.50 C192.13,105.17 194.03,107.01 199.49,109.89 ZM 89.42 102.11 C100.66,108.97 114.50,96.59 108.52,85.04 C103.54,75.40 89.29,75.55 84.67,85.28 C83.75,87.22 83.00,89.79 83.00,91.00 C83.00,94.66 86.16,100.12 89.42,102.11 ZM 51.19 101.97 C57.97,106.11 67.06,103.62 70.33,96.72 C72.38,92.40 72.43,89.96 70.56,85.49 C66.67,76.18 52.35,75.46 46.96,84.30 C43.37,90.18 45.34,98.41 51.19,101.97 ZM 127.51 101.83 C129.50,103.40 131.65,104.00 135.25,104.00 C139.71,104.00 140.65,103.59 144.12,100.12 C147.64,96.60 148.00,95.75 148.00,91.00 C148.00,86.25 147.64,85.40 144.12,81.88 C140.84,78.60 139.58,78.00 136.02,78.00 C128.22,78.00 124.38,81.05 121.99,89.13 C120.99,92.51 123.75,98.87 127.51,101.83 ZM 448.26 108.82 C449.46,110.02 450.68,110.97 450.97,110.94 C452.34,110.77 467.48,91.96 467.36,90.57 C467.17,88.43 452.86,72.17 451.08,72.07 C450.30,72.03 448.84,72.74 447.85,73.64 C446.12,75.20 446.27,75.54 451.12,81.14 L 456.20 87.00 L 430.00 87.00 L 430.00 94.00 L 457.17 94.00 L 451.62 100.32 L 446.08 106.63 ZM 243.04 95.25 C242.08,99.89 241.48,101.00 239.90,101.00 L 239.89 101.00 C239.34,101.00 238.92,101.00 238.57,100.85 C237.47,100.37 237.02,98.40 235.15,90.25 C233.35,82.41 233.34,82.00 235.02,82.00 C237.08,82.00 237.59,83.08 238.53,89.37 C238.91,91.92 239.60,94.00 240.06,94.00 C240.52,94.00 241.43,91.30 242.08,88.00 C243.13,82.69 243.53,82.00 245.63,82.00 C247.03,82.00 248.00,82.59 248.00,83.45 C248.00,84.25 248.53,87.29 249.17,90.20 L 250.34 95.50 L 251.97 89.00 C253.09,84.53 254.13,82.41 255.30,82.18 C257.44,81.77 257.44,81.79 254.64,92.00 C252.75,98.90 251.92,100.56 250.24,100.81 C248.46,101.07 248.02,100.35 247.13,95.81 C246.57,92.89 245.92,89.60 245.71,88.50 C245.21,85.97 244.65,87.38 243.04,95.25 ZM 217.92 95.75 C217.07,99.94 216.46,101.00 214.90,101.00 C212.62,101.00 212.61,100.98 210.15,90.50 C208.52,83.53 208.47,82.46 209.77,82.15 C211.78,81.68 212.74,83.48 213.53,89.20 C213.89,91.84 214.53,94.00 214.96,94.00 C215.38,94.00 216.30,91.28 217.01,87.95 C218.11,82.76 218.58,81.94 220.33,82.20 C221.95,82.44 222.68,83.84 223.88,89.00 L 225.39 95.50 L 226.91 88.75 C228.10,83.52 228.84,82.00 230.22,82.00 C230.30,82.00 230.38,82.00 230.45,82.00 C230.96,82.00 231.33,81.99 231.55,82.17 C232.14,82.66 231.66,84.43 229.91,90.92 C229.81,91.26 229.71,91.62 229.61,92.00 C227.74,98.92 226.93,100.56 225.24,100.81 C223.45,101.08 223.01,100.33 222.02,95.31 C220.52,87.67 219.80,85.86 219.34,88.50 C219.14,89.60 218.50,92.86 217.92,95.75 ZM 268.04 95.25 C267.10,99.81 266.46,101.00 264.97,101.00 C263.62,101.00 262.80,99.92 262.10,97.25 C261.94,96.62 261.78,96.01 261.63,95.43 C258.87,84.85 258.28,82.59 258.96,82.12 C259.14,81.99 259.41,81.99 259.77,82.00 C259.84,82.00 259.91,82.00 259.99,82.00 C262.21,82.00 262.90,83.71 263.67,91.14 C264.01,94.33 264.59,96.75 264.97,96.52 C265.35,96.28 266.26,92.92 266.99,89.05 C268.17,82.80 268.58,82.00 270.57,82.00 C272.49,82.00 272.91,82.69 273.47,86.80 C274.28,92.70 275.53,95.12 276.34,92.38 C276.64,91.35 277.20,88.78 277.57,86.67 C278.19,83.19 280.27,80.94 281.62,82.29 C281.91,82.58 281.08,86.80 279.77,91.66 C277.76,99.09 277.03,100.55 275.19,100.82 C273.90,101.01 272.97,100.60 272.94,99.82 C272.90,99.09 272.28,95.80 271.56,92.50 C270.15,86.09 269.87,86.31 268.04,95.25 ZM 286.26 100.40 C285.33,101.33 283.18,101.11 282.50,100.00 C281.68,98.68 282.78,97.00 284.45,97.00 C285.91,97.00 287.22,99.45 286.26,100.40 Z" fill="rgb(1,0,1)"/>
<path d="M 89.42 102.11 C86.16,100.12 83.00,94.66 83.00,91.00 C83.00,89.79 83.75,87.22 84.67,85.28 C89.29,75.55 103.54,75.40 108.52,85.04 C114.50,96.59 100.66,108.97 89.42,102.11 ZM 217.92 95.75 C218.50,92.86 219.14,89.60 219.34,88.50 C219.80,85.86 220.52,87.67 222.02,95.31 C222.80,99.26 223.23,100.56 224.26,100.81 C223.24,100.57 222.79,99.30 222.01,95.56 C221.38,92.50 220.51,90.00 220.09,90.00 C219.66,90.00 218.76,92.47 218.09,95.50 C217.57,97.81 217.15,99.21 216.63,100.02 C217.11,99.24 217.48,97.91 217.92,95.75 ZM 243.04 95.25 C244.65,87.38 245.21,85.97 245.71,88.50 C245.92,89.60 246.57,92.89 247.13,95.81 C247.54,97.89 247.85,99.16 248.24,99.92 C247.82,99.14 247.47,97.79 247.01,95.56 C246.38,92.50 245.51,90.00 245.09,90.00 C244.66,90.00 243.76,92.47 243.09,95.50 C242.39,98.60 241.86,100.07 241.06,100.66 C241.86,100.06 242.36,98.54 243.04,95.25 ZM 263.16 87.06 C263.29,87.79 263.42,88.61 263.56,89.54 C264.20,93.83 264.42,94.15 265.60,92.54 C266.05,91.92 266.56,90.61 266.98,89.13 C266.25,92.97 265.35,96.28 264.97,96.52 C264.59,96.75 264.01,94.33 263.67,91.14 C263.50,89.52 263.34,88.18 263.16,87.06 ZM 268.04 95.25 C269.87,86.31 270.15,86.09 271.56,92.50 C271.96,94.36 272.34,96.22 272.60,97.62 C272.44,97.03 272.28,96.35 272.10,95.55 C271.42,92.50 270.51,90.00 270.09,90.00 C269.66,90.00 268.76,92.47 268.09,95.50 C267.40,98.58 266.85,100.08 266.05,100.67 C266.84,100.07 267.36,98.53 268.04,95.25 ZM 5.97 78.44 C9.21,71.54 13.37,65.98 19.42,60.26 C21.15,58.62 23.07,57.05 25.12,55.57 C17.07,61.58 10.35,69.53 5.97,78.44 ZM 0.68 92.81 L 2.39 87.70 C2.07,88.79 1.80,89.89 1.56,91.00 C1.17,92.81 0.89,93.71 0.68,92.81 ZM 267.68 85.66 C268.19,82.58 268.71,82.00 270.52,82.00 C269.00,82.01 268.42,82.52 267.68,85.66 ZM 262.52 84.20 C261.96,82.51 261.20,82.00 259.99,82.00 C261.28,82.00 261.96,82.40 262.52,84.20 ZM 275.20 100.82 C275.74,100.74 276.18,100.55 276.59,100.15 C276.21,100.54 275.82,100.73 275.36,100.80 C275.31,100.81 275.25,100.81 275.20,100.82 ZM 272.05 82.33 C272.79,82.83 273.09,84.05 273.47,86.80 C273.09,84.05 272.78,82.84 272.05,82.33 Z" fill="rgb(152,163,165)"/>
<path d="M 0.00 138.00 L 512.00 138.00 L 512.00 512.00 L 511.94 463.75 L 511.89 415.50 L 510.02 422.63 C507.28,433.07 502.83,441.08 495.37,449.00 C488.05,456.75 480.83,461.53 471.00,465.12 L 464.50 467.50 L 259.00 467.77 C120.08,467.95 51.88,467.70 48.50,467.00 C35.78,464.37 25.16,458.25 16.04,448.31 C8.86,440.48 4.64,432.79 1.98,422.63 L 0.11 415.50 L 0.00 512.00 L 0.00 138.00 ZM 349.02 342.55 C349.88,344.82 350.45,345.00 356.79,345.00 L 363.64 345.00 L 371.76 320.75 C376.23,307.41 380.86,292.57 382.06,287.76 C384.31,278.75 385.36,277.68 386.52,283.26 C387.70,288.99 391.67,302.32 398.63,323.96 L 405.42 345.08 L 412.40 344.79 L 419.37 344.50 L 423.55 331.50 C425.85,324.35 430.99,308.38 434.96,296.00 C438.93,283.62 443.04,270.84 444.09,267.58 C445.14,264.33 446.00,261.52 446.00,261.33 C446.00,261.15 442.69,261.00 438.64,261.00 L 431.27 261.00 L 429.71 266.25 C422.52,290.38 415.44,316.38 414.51,322.00 C413.35,329.12 412.35,330.05 411.09,325.21 C410.49,322.89 409.51,319.09 408.90,316.75 C407.89,312.83 404.45,301.46 395.40,272.21 L 391.90 260.91 L 378.69 261.50 L 375.48 271.50 C368.68,292.61 363.98,307.86 361.46,317.00 C358.23,328.70 357.86,329.76 357.40,328.50 C357.20,327.95 353.85,314.90 349.96,299.50 C346.07,284.10 342.20,269.14 341.37,266.25 L 339.86 261.00 L 332.43 261.00 C327.31,261.00 325.00,261.37 325.00,262.20 C325.00,263.42 347.31,338.05 349.02,342.55 ZM 87.65 336.79 L 90.15 345.08 L 97.24 344.79 L 104.32 344.50 L 112.57 319.69 C117.10,306.05 121.59,291.65 122.53,287.69 C123.48,283.74 124.62,280.11 125.05,279.62 C125.49,279.14 126.35,280.72 126.95,283.12 C129.17,292.04 132.36,302.90 137.06,317.50 C139.72,325.75 142.74,335.20 143.79,338.50 L 145.69 344.50 L 159.61 345.08 L 166.98 322.29 C181.87,276.30 184.89,266.78 185.52,263.92 L 186.16 261.00 L 171.50 261.00 L 165.25 283.25 C161.81,295.49 157.85,310.23 156.45,316.00 C155.06,321.77 153.67,327.17 153.36,328.00 C153.06,328.83 151.38,324.33 149.62,318.00 C147.87,311.67 143.30,296.27 139.47,283.76 L 132.50 261.02 L 125.95 261.01 L 119.39 261.00 L 113.01 280.75 C109.50,291.61 104.73,307.02 102.41,315.00 C98.51,328.42 98.12,329.29 97.10,326.68 C96.49,325.14 96.00,323.32 96.00,322.65 C96.00,321.53 90.02,297.76 83.26,272.00 L 80.50 261.50 L 72.62 261.21 C65.45,260.94 64.79,261.07 65.25,262.71 C65.53,263.69 70.12,278.90 75.45,296.50 C80.79,314.10 86.27,332.23 87.65,336.79 ZM 219.51 343.75 C219.80,344.59 222.23,345.00 226.91,345.00 L 233.89 345.00 L 242.94 317.57 C247.92,302.48 252.48,287.86 253.08,285.07 C253.67,282.29 254.52,279.80 254.96,279.52 C255.40,279.25 256.70,282.74 257.85,287.26 C259.61,294.22 269.66,326.99 274.17,340.50 L 275.51 344.50 L 289.49 344.50 L 295.67 325.50 C309.08,284.24 316.00,262.57 316.00,261.80 C316.00,261.36 312.68,261.00 308.63,261.00 L 301.27 261.00 L 294.11 286.39 C290.17,300.35 286.21,315.32 285.31,319.64 C284.40,323.96 283.35,327.87 282.97,328.31 C282.59,328.76 281.52,326.06 280.59,322.31 C279.66,318.57 275.71,305.15 271.81,292.50 C267.91,279.85 264.17,267.70 263.50,265.50 L 262.29 261.50 L 255.71 261.21 L 249.13 260.91 L 242.50 281.71 C233.66,309.47 232.42,313.47 230.53,320.50 C229.64,323.80 228.66,327.17 228.36,328.00 C228.05,328.83 224.95,318.25 221.46,304.50 C217.97,290.75 214.05,275.45 212.75,270.50 L 210.38 261.50 L 202.69 261.21 C198.46,261.05 195.01,261.27 195.02,261.71 C195.03,262.14 196.20,266.33 197.61,271.00 C200.21,279.62 201.87,285.18 204.41,293.75 C206.89,302.14 219.07,342.46 219.51,343.75 ZM 51.19 101.97 C45.34,98.41 43.37,90.18 46.96,84.30 C52.35,75.46 66.67,76.18 70.56,85.49 C72.43,89.96 72.38,92.40 70.33,96.72 C67.06,103.62 57.97,106.11 51.19,101.97 ZM 127.51 101.83 C123.75,98.87 120.99,92.51 121.99,89.13 C124.38,81.05 128.22,78.00 136.02,78.00 C139.58,78.00 140.84,78.60 144.12,81.88 C147.64,85.40 148.00,86.25 148.00,91.00 C148.00,95.75 147.64,96.60 144.12,100.12 C140.65,103.59 139.71,104.00 135.25,104.00 C131.65,104.00 129.50,103.40 127.51,101.83 Z" fill="rgb(251,112,89)"/>
<path d="M 0.06 463.75 L 0.11 415.50 L 1.98 422.63 C4.64,432.79 8.86,440.48 16.04,448.31 C25.16,458.25 35.78,464.37 48.50,467.00 C51.88,467.70 120.08,467.95 259.00,467.77 L 464.50 467.50 L 471.00 465.12 C480.83,461.53 488.05,456.75 495.37,449.00 C502.83,441.08 507.28,433.07 510.02,422.63 L 511.89 415.50 L 511.94 463.75 L 512.00 512.00 L 256.00 512.00 L 0.00 512.00 L 0.06 463.75 ZM 87.65 336.79 C86.27,332.23 80.79,314.10 75.45,296.50 C70.12,278.90 65.53,263.69 65.25,262.71 C64.79,261.07 65.45,260.94 72.62,261.21 L 80.50 261.50 L 83.26 272.00 C90.02,297.76 96.00,321.53 96.00,322.65 C96.00,323.32 96.49,325.14 97.10,326.68 C98.12,329.29 98.51,328.42 102.41,315.00 C104.73,307.02 109.50,291.61 113.01,280.75 L 119.39 261.00 L 125.95 261.01 L 132.50 261.02 L 139.47 283.76 C143.30,296.27 147.87,311.67 149.62,318.00 C151.38,324.33 153.06,328.83 153.36,328.00 C153.67,327.17 155.06,321.77 156.45,316.00 C157.85,310.23 161.81,295.49 165.25,283.25 L 171.50 261.00 L 178.83 261.00 L 186.16 261.00 L 185.52 263.92 C184.89,266.78 181.87,276.30 166.98,322.29 L 159.61 345.08 L 152.65 344.79 L 145.69 344.50 L 143.79 338.50 C142.74,335.20 139.72,325.75 137.06,317.50 C132.36,302.90 129.17,292.04 126.95,283.12 C126.35,280.72 125.49,279.14 125.05,279.62 C124.62,280.11 123.48,283.74 122.53,287.69 C121.59,291.65 117.10,306.05 112.57,319.69 L 104.32 344.50 L 97.24 344.79 L 90.15 345.08 L 87.65 336.79 ZM 219.51 343.75 C219.07,342.46 206.89,302.14 204.41,293.75 C201.87,285.18 200.21,279.62 197.61,271.00 C196.20,266.33 195.03,262.14 195.02,261.71 C195.01,261.27 198.46,261.05 202.69,261.21 L 210.38 261.50 L 212.75 270.50 C214.05,275.45 217.97,290.75 221.46,304.50 C224.95,318.25 228.05,328.83 228.36,328.00 C228.66,327.17 229.64,323.80 230.53,320.50 C232.42,313.47 233.66,309.47 242.50,281.71 L 249.13 260.91 L 255.71 261.21 L 262.29 261.50 L 263.50 265.50 C264.17,267.70 267.91,279.85 271.81,292.50 C275.71,305.15 279.66,318.57 280.59,322.31 C281.52,326.06 282.59,328.76 282.97,328.31 C283.35,327.87 284.40,323.96 285.31,319.64 C286.21,315.32 290.17,300.35 294.11,286.39 L 301.27 261.00 L 308.63 261.00 C312.68,261.00 316.00,261.36 316.00,261.80 C316.00,262.57 309.08,284.24 295.67,325.50 L 289.49 344.50 L 282.50 344.50 L 275.51 344.50 L 274.17 340.50 C269.66,326.99 259.61,294.22 257.85,287.26 C256.70,282.74 255.40,279.25 254.96,279.52 C254.52,279.80 253.67,282.29 253.08,285.07 C252.48,287.86 247.92,302.48 242.94,317.57 L 233.89 345.00 L 226.91 345.00 C222.23,345.00 219.80,344.59 219.51,343.75 ZM 349.02 342.55 C347.31,338.05 325.00,263.42 325.00,262.20 C325.00,261.37 327.31,261.00 332.43,261.00 L 339.86 261.00 L 341.37 266.25 C342.20,269.14 346.07,284.10 349.96,299.50 C353.85,314.90 357.20,327.95 357.40,328.50 C357.86,329.76 358.23,328.70 361.46,317.00 C363.98,307.86 368.68,292.61 375.48,271.50 L 378.69 261.50 L 385.30 261.21 L 391.90 260.91 L 395.40 272.21 C404.45,301.46 407.89,312.83 408.90,316.75 C409.51,319.09 410.49,322.89 411.09,325.21 C412.35,330.05 413.35,329.12 414.51,322.00 C415.44,316.38 422.52,290.38 429.71,266.25 L 431.27 261.00 L 438.64 261.00 C442.69,261.00 446.00,261.15 446.00,261.33 C446.00,261.52 445.14,264.33 444.09,267.58 C443.04,270.84 438.93,283.62 434.96,296.00 C430.99,308.38 425.85,324.35 423.55,331.50 L 419.37 344.50 L 412.40 344.79 L 405.42 345.08 L 398.63 323.96 C391.67,302.32 387.70,288.99 386.52,283.26 C385.36,277.68 384.31,278.75 382.06,287.76 C380.86,292.57 376.23,307.41 371.76,320.75 L 363.64 345.00 L 356.79 345.00 C350.45,345.00 349.88,344.82 349.02,342.55 ZM 199.49 109.89 C194.03,107.01 192.13,105.17 189.74,100.50 C185.67,92.56 187.64,81.39 194.17,75.30 C200.05,69.81 196.46,70.00 294.22,70.02 C395.67,70.05 389.20,69.57 395.76,77.52 C404.70,88.37 400.65,105.07 387.77,110.45 C384.52,111.81 373.01,112.00 293.77,112.00 C203.84,112.00 203.45,111.99 199.49,109.89 ZM 218.09 95.50 C218.76,92.47 219.66,90.00 220.09,90.00 C220.51,90.00 221.38,92.50 222.01,95.56 C223.00,100.33 223.46,101.07 225.24,100.81 C226.93,100.56 227.74,98.92 229.61,92.00 C232.42,81.61 232.39,82.00 230.22,82.00 C228.84,82.00 228.10,83.52 226.91,88.75 L 225.39 95.50 L 223.88 89.00 C222.68,83.84 221.95,82.44 220.33,82.20 C218.58,81.94 218.11,82.76 217.01,87.95 C216.30,91.28 215.38,94.00 214.96,94.00 C214.53,94.00 213.89,91.84 213.53,89.20 C212.74,83.48 211.78,81.68 209.77,82.15 C208.47,82.46 208.52,83.53 210.15,90.50 C212.61,100.98 212.62,101.00 214.90,101.00 C216.46,101.00 217.11,99.88 218.09,95.50 ZM 243.09 95.50 C243.76,92.47 244.66,90.00 245.09,90.00 C245.51,90.00 246.38,92.50 247.01,95.56 C248.00,100.32 248.46,101.07 250.24,100.81 C251.92,100.56 252.75,98.90 254.64,92.00 C257.44,81.79 257.44,81.77 255.30,82.18 C254.13,82.41 253.09,84.53 251.97,89.00 L 250.34 95.50 L 249.17 90.20 C248.53,87.29 248.00,84.25 248.00,83.45 C248.00,82.59 247.03,82.00 245.63,82.00 C243.53,82.00 243.13,82.69 242.08,88.00 C241.43,91.30 240.52,94.00 240.06,94.00 C239.60,94.00 238.91,91.92 238.53,89.37 C237.59,83.08 237.08,82.00 235.02,82.00 C233.34,82.00 233.35,82.41 235.15,90.25 C237.62,101.01 237.61,101.00 239.90,101.00 C241.46,101.00 242.11,99.88 243.09,95.50 ZM 268.09 95.50 C268.76,92.47 269.66,90.00 270.09,90.00 C270.51,90.00 271.42,92.50 272.10,95.55 C273.14,100.22 273.66,101.05 275.36,100.80 C276.99,100.56 277.84,98.79 279.77,91.66 C281.08,86.80 281.91,82.58 281.62,82.29 C280.27,80.94 278.19,83.19 277.57,86.67 C277.20,88.78 276.64,91.35 276.34,92.38 C275.53,95.12 274.28,92.70 273.47,86.80 C272.90,82.65 272.50,82.00 270.52,82.00 C268.58,82.00 268.13,82.67 267.57,86.36 C267.21,88.77 266.32,91.54 265.60,92.54 C264.42,94.15 264.20,93.83 263.56,89.54 C262.59,83.05 262.09,82.00 259.99,82.00 C258.05,82.00 257.96,81.34 262.10,97.25 C262.80,99.92 263.62,101.00 264.97,101.00 C266.44,101.00 267.13,99.79 268.09,95.50 ZM 286.26 100.40 C287.22,99.45 285.91,97.00 284.45,97.00 C282.78,97.00 281.68,98.68 282.50,100.00 C283.18,101.11 285.33,101.33 286.26,100.40 ZM 448.26 108.82 L 446.08 106.63 L 451.62 100.32 L 457.17 94.00 L 443.58 94.00 L 430.00 94.00 L 430.00 90.50 L 430.00 87.00 L 443.10 87.00 L 456.20 87.00 L 451.12 81.14 C446.27,75.54 446.12,75.20 447.85,73.64 C448.84,72.74 450.30,72.03 451.08,72.07 C452.86,72.17 467.17,88.43 467.36,90.57 C467.48,91.96 452.34,110.77 450.97,110.94 C450.68,110.97 449.46,110.02 448.26,108.82 ZM 0.06 47.25 L 0.00 0.00 L 256.00 0.00 L 512.00 0.00 L 511.93 47.25 C511.87,90.39 511.74,94.02 510.42,89.00 C505.98,72.07 494.10,57.45 478.90,50.19 C474.28,47.98 468.12,45.69 465.20,45.09 C457.66,43.54 55.24,43.55 47.80,45.11 C38.24,47.10 26.98,53.11 19.42,60.26 C11.20,68.03 6.47,75.49 2.81,86.45 L 0.11 94.50 L 0.06 47.25 Z" fill="rgb(254,253,253)"/>
</g>
</svg>